<?xml version="1.0" encoding="UTF-8" standalone="no"?>
<!DOCTYPE svg PUBLIC "-//W3C//DTD SVG 1.1//EN" "http://www.w3.org/Graphics/SVG/1.1/DTD/svg11.dtd">
<svg width="100%" height="100%" viewBox="0 0 512 128" version="1.1" xmlns="http://www.w3.org/2000/svg" xmlns:xlink="http://www.w3.org/1999/xlink" xml:space="preserve" xmlns:serif="http://www.serif.com/" style="fill-rule:evenodd;clip-rule:evenodd;stroke-linejoin:round;stroke-miterlimit:2;">
    <g transform="matrix(0.23295,0,0,0.23295,68.3874,64)">
        <g transform="matrix(1,0,0,1,-256,-256)">
            <clipPath id="_clip1">
                <rect x="0" y="0" width="512" height="512"/>
            </clipPath>
            <g clip-path="url(#_clip1)">
                <g>
                    <path d="M128.094,30L50.047,30C38.43,30 29.012,39.418 29.012,51.035L29.012,79.273L89.07,98.859L149.125,79.273L149.125,51.035C149.129,39.418 139.711,30 128.094,30Z" style="fill:rgb(255,203,93);fill-rule:nonzero;"/>
                    <path d="M383.906,30L461.953,30C473.57,30 482.988,39.418 482.988,51.035L482.988,79.273L422.93,98.859L362.871,79.27L362.871,51.035C362.871,39.418 372.289,30 383.906,30Z" style="fill:rgb(255,203,93);fill-rule:nonzero;"/>
                    <path d="M295.023,30L216.977,30C205.359,30 195.941,39.418 195.941,51.035L195.941,79.273L256,98.859L316.055,79.27L316.055,51.035C316.055,39.418 306.641,30 295.023,30Z" style="fill:rgb(255,203,93);fill-rule:nonzero;"/>
                </g>
                <path d="M482.988,79.27L29.012,79.27C12.988,79.27 -0,92.262 -0,108.285L-0,213.656L256,249.195L512,213.656L512,108.285C512,92.262 499.012,79.27 482.988,79.27Z" style="fill:rgb(255,230,117);fill-rule:nonzero;"/>
                <path d="M41.207,213.656L41.207,108.285C41.207,92.262 54.195,79.27 70.219,79.27L29.012,79.27C12.988,79.27 0,92.262 0,108.285L0,213.656L256,249.195L276.605,246.336L41.207,213.656Z" style="fill:rgb(255,203,93);fill-rule:nonzero;"/>
                <path d="M256,318.055L0,348.043L0,453.414C0,469.437 12.988,482.43 29.012,482.43L482.988,482.43C499.012,482.43 512,469.437 512,453.414L512,348.043L256,318.055Z" style="fill:rgb(109,209,224);fill-rule:nonzero;"/>
                <path d="M41.207,453.414L41.207,348.043L276.605,320.469L256,318.055L-0,348.043L-0,453.414C-0,469.437 12.988,482.43 29.012,482.43L70.219,482.43C54.195,482.43 41.207,469.437 41.207,453.414Z" style="fill:rgb(69,192,210);fill-rule:nonzero;"/>
                <rect x="0" y="213.656" width="512" height="134.387" style="fill:rgb(255,158,192);fill-rule:nonzero;"/>
                <rect x="0" y="213.656" width="41.207" height="134.387" style="fill:rgb(255,102,168);fill-rule:nonzero;"/>
                <path d="M162.809,292.508C158.543,292.508 155.082,289.047 155.082,284.781L155.082,267.914C155.082,263.648 158.543,260.188 162.809,260.188C167.078,260.188 170.535,263.648 170.535,267.914L170.535,284.781C170.535,289.047 167.078,292.508 162.809,292.508Z" style="fill:rgb(58,60,76);fill-rule:nonzero;"/>
                <path d="M349.191,292.508C344.922,292.508 341.465,289.047 341.465,284.781L341.465,267.914C341.465,263.648 344.922,260.188 349.191,260.188C353.457,260.188 356.918,263.648 356.918,267.914L356.918,284.781C356.918,289.047 353.457,292.508 349.191,292.508Z" style="fill:rgb(58,60,76);fill-rule:nonzero;"/>
                <path d="M256,301.512C244.809,301.512 234.301,296.84 227.184,288.691C224.371,285.48 224.699,280.598 227.914,277.789C231.129,274.98 236.004,275.309 238.816,278.523C243,283.309 249.266,286.059 256,286.059C262.734,286.059 268.996,283.313 273.184,278.523C275.992,275.309 280.875,274.98 284.086,277.789C287.301,280.598 287.629,285.48 284.816,288.691C277.699,296.84 267.195,301.512 256,301.512Z" style="fill:rgb(58,60,76);fill-rule:nonzero;"/>
            </g>
        </g>
    </g>
    <g transform="matrix(1,0,0,1,-14.0701,29.6686)">
        <path d="M188.684,-6.564L188.684,-6.853L185.974,-6.853L185.974,-7.431L185.396,-7.431L185.396,-10.177L185.107,-10.177L185.107,-7.431L181.746,-7.431C176.543,-6.961 172.821,-4.793 170.545,-0.927C169.714,0.627 169.172,2 168.919,3.265C168.702,4.493 168.594,5.36 168.594,5.866L168.594,7.095L165.92,7.095L165.92,4.204L165.631,4.204L165.631,7.095L165.053,7.095L165.053,7.673L162.343,7.673L162.343,7.962L165.053,7.962L165.053,16.128L162.343,16.128L162.343,16.417L165.053,16.417L165.053,16.995L165.631,16.995L165.631,19.741L165.92,19.741L165.92,16.995L168.594,16.995L168.594,44.853L165.884,44.853L165.884,45.142L168.594,45.142L168.594,45.721L169.172,45.721L169.172,48.467L169.461,48.467L169.461,45.721L177.555,45.721L177.555,48.322L177.844,48.322L177.844,45.721L178.422,45.721L178.422,45.142L181.132,45.142L181.132,44.853L178.422,44.853L178.422,16.995L183.083,16.995L183.083,19.741L183.372,19.741L183.372,16.995L183.95,16.995L183.95,16.417L186.66,16.417L186.66,16.128L183.95,16.128L183.95,7.962L186.66,7.962L186.66,7.673L183.95,7.673L183.95,7.095L183.372,7.095L183.372,4.927L183.083,4.927L183.083,7.095L178.422,7.095L178.422,6.047C178.422,6.011 178.458,5.794 178.494,5.433C178.53,5.071 178.675,4.674 178.892,4.204C179.072,3.734 179.398,3.337 179.867,2.975C180.337,2.65 180.987,2.47 181.818,2.47L185.107,2.47L185.107,5.216L185.396,5.216L185.396,2.47L185.974,2.47L185.974,1.892L188.684,1.892L188.684,1.602L185.974,1.602L185.974,-6.564L188.684,-6.564ZM171.774,-0.204C172.858,-2.083 174.339,-3.492 176.218,-4.468L175.025,-2.697L170.256,4.168C170.4,2.903 170.942,1.422 171.774,-0.204ZM170.039,6.047C170.039,5.794 170.075,5.396 170.148,4.818L175.857,-3.384L176.76,-4.721C177.627,-5.118 178.566,-5.443 179.614,-5.66L170.039,8.142L170.039,6.047ZM166.498,8.54L167.221,8.54L166.968,8.901L166.498,9.552L166.498,8.54ZM166.498,10.058L167.546,8.54L169.75,8.54L166.968,12.587L166.498,13.237L166.498,10.058ZM166.498,15.55L166.498,13.743L180.012,-5.733C180.59,-5.841 181.204,-5.913 181.855,-5.985L182.397,-5.985L167.474,15.55L166.498,15.55ZM176.977,44.275L176.037,44.275L176.977,42.902L176.977,44.275ZM176.977,42.36L175.676,44.275L173.472,44.275L176.977,39.181L176.977,42.36ZM176.977,38.675L173.11,44.275L170.906,44.275L176.977,35.495L176.977,38.675ZM176.977,34.989L170.545,44.275L170.039,44.275L170.039,41.854L173.327,37.121L176.977,31.809L176.977,34.989ZM176.977,31.304L173.327,36.615L170.039,41.349L170.039,38.169L173.327,33.435L176.977,28.124L176.977,31.304ZM176.977,27.618L173.327,32.93L170.039,37.627L170.039,34.447L173.327,29.75L176.977,24.438L176.977,27.618ZM176.977,23.933L173.327,29.244L170.039,33.941L170.039,30.762L173.327,26.064L176.977,20.753L176.977,23.933ZM176.977,20.247L173.327,25.559L170.039,30.256L170.039,27.076L170.979,25.739L176.977,17.067L176.977,20.247ZM182.505,15.55L180.59,15.55L182.505,12.804L182.505,15.55ZM182.505,12.298L180.229,15.55L178.025,15.55L182.505,9.118L182.505,12.298ZM182.505,8.54L182.505,8.612L177.663,15.55L176.977,15.55L176.977,16.561L170.075,26.534L170.039,26.57L170.039,23.391L180.337,8.54L182.505,8.54ZM179.976,8.54L170.039,22.885L170.039,19.705L177.772,8.54L179.976,8.54ZM177.41,8.54L170.039,19.199L170.039,16.019L176.977,6.011L176.977,8.54L177.41,8.54ZM184.528,1.024L182.975,1.024L184.528,-1.18L184.528,1.024ZM184.528,-1.686L182.65,1.024L181.818,1.024C181.24,1.024 180.734,1.097 180.301,1.241L184.528,-4.865L184.528,-1.686ZM184.528,-5.371L179.831,1.386C178.675,1.964 177.916,2.686 177.555,3.59C177.266,4.312 177.085,4.927 177.013,5.433L170.003,15.55L167.799,15.55L182.722,-5.985L184.528,-5.985L184.528,-5.371Z" style="fill:rgb(4,0,61);fill-rule:nonzero;"/>
        <path d="M218.421,16.092L215.711,16.128L215.711,8.179L218.421,8.179L218.421,7.89L215.711,7.89L215.711,7.131L215.133,7.131L215.133,4.168L214.844,4.168L214.844,7.131C213.362,7.131 211.845,7.131 210.363,7.167C208.846,7.203 207.762,7.239 207.148,7.275C206.316,7.348 205.558,7.492 204.871,7.709L204.871,7.637L202.161,7.637L202.161,7.059L201.547,7.059L201.547,4.168L201.258,4.168L201.258,7.059L193.164,7.059L193.164,4.168L192.875,4.168L192.875,7.059L192.297,7.059L192.297,7.89L189.587,7.89L189.587,8.179L192.297,8.179L192.297,44.853L189.587,44.853L189.587,45.142L192.297,45.142L192.297,45.721L192.875,45.721L192.875,48.467L193.164,48.467L193.164,45.721L201.258,45.721L201.258,48.467L201.547,48.467L201.547,45.721L202.161,45.721L202.161,45.142L204.871,45.142L204.871,44.853L202.161,44.853L202.161,24.908C202.161,24.727 202.233,24.366 202.342,23.788C202.486,23.101 202.775,22.307 203.209,21.403C203.643,20.5 204.293,19.633 205.196,18.838C206.064,18.043 207.22,17.465 208.701,17.067L214.844,16.995L214.844,20.175L215.133,20.175L215.133,16.995L215.711,16.995L215.711,16.417L218.457,16.381L218.421,16.092ZM202.161,7.926L204.293,7.926C203.426,8.251 202.703,8.612 202.161,8.974L202.161,7.926ZM193.742,8.937L194.067,8.504L196.272,8.504L193.742,12.117L193.742,8.937ZM193.742,12.623L196.633,8.504L198.837,8.504L198.15,9.443L193.742,15.803L193.742,12.623ZM193.742,16.345L199.162,8.504L200.716,8.504L200.716,9.479L197.211,14.502L193.742,19.524L193.742,16.345ZM193.742,20.03L197.211,15.008L200.716,9.985L200.716,12.045L201.908,10.925C201.944,10.889 202.161,10.708 202.631,10.383L193.742,23.21L193.742,20.03ZM193.742,23.716L203.245,9.985C204.004,9.516 205.016,9.154 206.244,8.865L194.682,25.559L193.742,26.895L193.742,23.716ZM193.742,27.401L196.055,24.077L206.642,8.793C206.822,8.757 207.039,8.721 207.256,8.721C207.617,8.684 208.159,8.684 208.954,8.648L194.14,30.003L193.742,30.581L193.742,27.401ZM200.716,44.275L199.957,44.275L200.716,43.155L200.716,44.275ZM200.716,42.649L200.499,42.975L199.596,44.275L197.392,44.275L200.716,39.47L200.716,42.649ZM200.716,38.964L197.03,44.275L194.826,44.275L200.716,35.784L200.716,38.964ZM200.716,35.278L194.501,44.275L193.742,44.275L193.742,42.143L197.211,37.121L200.716,32.099L200.716,35.278ZM200.716,31.593L197.211,36.615L193.742,41.638L193.742,38.458L197.211,33.435L200.716,28.413L200.716,31.593ZM200.716,24.691L200.716,27.907L197.211,32.93L193.742,37.952L193.742,34.772L200.716,24.691ZM201.836,20.897C201.258,22.198 200.897,23.246 200.824,24.077L193.742,34.267L193.742,31.087L194.465,30.075L209.279,8.648C209.966,8.612 210.725,8.612 211.52,8.612L208.304,13.237L206.064,16.489C204.185,17.465 202.775,18.91 201.836,20.897ZM208.521,15.622L208.448,15.658C207.798,15.803 207.148,15.983 206.569,16.272L211.881,8.576L214.085,8.576L211.628,12.117L209.207,15.622L208.521,15.622ZM214.266,15.55L212.134,15.586L214.266,12.515L214.266,15.55ZM214.266,12.009L213.543,13.057L211.809,15.586L209.568,15.622L214.266,8.829L214.266,12.009Z" style="fill:rgb(4,0,61);fill-rule:nonzero;"/>
        <path d="M254.482,8.179L254.482,7.89L251.663,7.89L251.663,7.311L251.085,7.311L251.085,4.457L250.796,4.457L250.796,7.311L242.775,7.311L242.775,4.601L242.485,4.601L242.485,7.311L241.907,7.311L241.907,7.89L240.751,7.89C239.125,7.42 237.463,7.203 235.729,7.203C230.742,7.203 226.298,9.082 222.504,12.804C218.855,16.706 217.012,21.223 217.012,26.353C217.012,29.858 217.843,33.074 219.541,35.965C221.239,38.855 223.48,41.168 226.334,42.902C229.152,44.6 232.296,45.468 235.729,45.468C236.885,45.468 238.041,45.359 239.197,45.142L241.907,45.142L241.907,45.721L242.485,45.721L242.485,48.322L242.775,48.322L242.775,45.721L250.796,45.721L250.796,48.467L251.085,48.467L251.085,45.721L251.663,45.721L251.663,45.142L254.482,45.142L254.482,44.853L251.663,44.853L251.663,8.179L254.482,8.179ZM249.567,8.757L242.955,18.26C242.485,17.862 242.016,17.537 241.474,17.212L247.363,8.757L249.567,8.757ZM241.907,19.271L241.907,33.688C240.137,35.098 238.186,35.784 236.018,35.784C233.452,35.784 231.248,34.881 229.441,33.074C227.599,31.267 226.695,29.063 226.695,26.498C226.695,23.933 227.599,21.728 229.441,19.886C231.248,18.079 233.452,17.176 236.018,17.176C238.186,17.176 240.137,17.862 241.907,19.271ZM244.798,8.757L247.002,8.757L242.594,15.116L241.221,17.067C240.715,16.778 240.137,16.525 239.559,16.309L244.726,8.865L244.798,8.757ZM243.353,8.757L244.437,8.757L243.353,10.31L243.353,8.757ZM241.907,8.179L241.907,8.287C241.835,8.251 241.763,8.215 241.654,8.179L241.907,8.179ZM242.341,9.985L243.316,10.419L239.27,16.236C238.655,16.019 238.005,15.875 237.355,15.803L241.582,9.696C241.835,9.805 242.088,9.877 242.341,9.985ZM241.329,9.588L237.029,15.767C236.704,15.73 236.379,15.73 236.018,15.73C235.62,15.73 235.223,15.73 234.825,15.767L236.56,13.273L239.486,9.082C240.101,9.19 240.715,9.371 241.329,9.588ZM239.161,9.01L234.428,15.839C233.488,15.983 232.549,16.236 231.682,16.634L235.223,11.503L237.174,8.721C237.86,8.757 238.511,8.865 239.161,9.01ZM220.444,18.115L223.046,14.321C224.455,12.804 226.045,11.575 227.852,10.6L218.602,23.933C218.891,21.837 219.505,19.886 220.444,18.115ZM218.457,26.353C218.457,25.739 218.493,25.125 218.529,24.547L228.394,10.347C229.333,9.877 230.309,9.516 231.357,9.226L220.589,24.764L218.529,27.763C218.493,27.293 218.457,26.823 218.457,26.353ZM218.566,28.232L231.79,9.118C232.585,8.937 233.416,8.793 234.247,8.721L218.999,30.762C218.782,29.931 218.638,29.1 218.566,28.232ZM219.108,31.123L234.645,8.684C235.006,8.648 235.367,8.648 235.729,8.648C236.126,8.648 236.487,8.648 236.849,8.684L231.176,16.887C227.816,18.657 225.864,21.475 225.322,25.342L219.83,33.255C219.541,32.568 219.288,31.846 219.108,31.123ZM219.975,33.58L225.25,25.92L225.25,26.498C225.25,27.293 225.322,28.016 225.503,28.774L220.878,35.387C220.553,34.809 220.228,34.194 219.975,33.58ZM221.059,35.676L225.575,29.136C225.756,29.858 226.009,30.545 226.334,31.231L222.938,36.109L222.143,37.266C221.745,36.76 221.384,36.218 221.059,35.676ZM222.323,37.518L224.491,34.375L226.479,31.52C226.804,32.099 227.165,32.641 227.563,33.146L226.009,35.387L223.588,38.892C223.154,38.458 222.721,37.988 222.323,37.518ZM223.769,39.108L227.743,33.363C228.141,33.833 228.574,34.267 229.044,34.7L225.142,40.301C224.672,39.939 224.202,39.542 223.769,39.108ZM225.395,40.481L229.261,34.881C229.731,35.242 230.236,35.567 230.778,35.892L230.453,36.326L226.876,41.529C226.37,41.204 225.864,40.843 225.395,40.481ZM227.129,41.674L231.031,36.001C231.573,36.29 232.151,36.543 232.73,36.724L228.719,42.505C228.177,42.252 227.635,41.963 227.129,41.674ZM229.008,42.613L233.019,36.832C233.669,37.013 234.283,37.121 234.97,37.193L233.235,39.686L230.742,43.264C230.164,43.083 229.586,42.866 229.008,42.613ZM231.031,43.372L235.295,37.229L236.018,37.229C236.56,37.229 237.066,37.193 237.571,37.121L232.946,43.806C232.296,43.697 231.682,43.553 231.031,43.372ZM233.272,43.842L237.969,37.085C238.944,36.868 239.92,36.543 240.823,36.109L235.331,44.022C234.645,44.022 233.958,43.95 233.272,43.842ZM241.907,44.853L240.462,44.853C240.968,44.745 241.438,44.6 241.907,44.42L241.907,44.853ZM250.218,44.275L248.303,44.275L250.218,41.493L250.218,44.275ZM250.218,40.987L247.941,44.275L245.737,44.275L250.218,37.808L250.218,40.987ZM250.218,37.302L245.376,44.275L243.353,44.275L243.353,44.022L248.736,36.29L250.218,34.122L250.218,37.302ZM250.218,33.616L246.605,38.855L243.353,43.517L243.353,42.288L242.377,42.722C242.088,42.83 241.763,42.938 241.474,43.047L250.218,30.436L250.218,33.616ZM250.218,29.931L250.182,29.967L241.04,43.191C240.173,43.48 239.27,43.697 238.402,43.806L249.242,28.124L250.218,26.751L250.218,29.931ZM250.218,26.245L238.005,43.878C237.246,43.986 236.487,44.022 235.729,44.022L235.692,44.022L240.679,36.868L241.401,35.784C241.98,35.459 242.558,35.025 243.1,34.556L243.353,34.339L243.353,32.966L246.605,28.305L250.218,23.065L250.218,26.245ZM250.218,22.559L246.605,27.799L243.353,32.46L243.353,29.28L246.605,24.619L250.218,19.38L250.218,22.559ZM250.218,18.874L246.605,24.113L243.353,28.774L243.353,25.595L246.605,20.934L250.218,15.694L250.218,18.874ZM250.218,15.188L246.605,20.428L243.353,25.089L243.353,21.909L246.605,17.248L250.218,12.009L250.218,15.188ZM250.218,11.503L246.605,16.742L243.353,21.403L243.353,18.621L243.172,18.44L249.893,8.757L250.218,8.757L250.218,11.503Z" style="fill:rgb(4,0,61);fill-rule:nonzero;"/>
        <path d="M312.005,44.853L312.005,19.958C311.066,15.116 308.97,11.611 305.718,9.479C303.369,8.07 301.599,7.384 300.406,7.348L298.383,7.348C296.396,7.348 294.914,7.492 293.902,7.781C292.06,8.287 290.434,8.937 289.025,9.696C287.615,10.491 286.64,11.142 286.025,11.611C285.267,10.852 284.074,10.021 282.412,9.082C280.714,8.142 278.654,7.564 276.161,7.311C275.836,7.311 275.511,7.275 275.186,7.275C273.487,7.275 271.97,7.492 270.669,7.926L270.669,7.89L267.851,7.89L267.851,7.311L259.07,7.311L259.07,4.457L258.781,4.457L258.781,7.311L258.203,7.311L258.203,7.89L255.385,7.89L255.385,8.179L258.203,8.179L258.203,44.853L255.385,44.853L255.385,45.142L258.203,45.142L258.203,45.721L258.781,45.721L258.781,48.467L259.07,48.467L259.07,45.721L266.983,45.721L266.983,48.467L267.273,48.467L267.273,45.721L267.851,45.721L267.851,45.142L270.669,45.142L270.669,44.853L267.851,44.853L267.851,21.656C268.104,21.331 268.573,20.753 269.332,19.994C270.055,19.235 270.958,18.585 272.042,18.007C273.126,17.465 274.282,17.176 275.511,17.176L275.944,17.176C277.137,17.284 278.04,17.609 278.654,18.115C279.269,18.621 279.666,19.127 279.883,19.633C280.1,20.175 280.208,20.5 280.208,20.644L280.208,44.853L277.534,44.853L277.534,45.142L280.208,45.142L280.208,45.721L280.822,45.721L280.822,48.467L281.111,48.467L281.111,45.721L289.133,45.721L289.133,48.467L289.422,48.467L289.422,45.721L290,45.721L290,45.142L292.71,45.142L292.71,44.853L290,44.853L290,21.656C290.253,21.331 290.723,20.753 291.482,19.994C292.24,19.235 293.144,18.585 294.191,18.007C295.275,17.465 296.432,17.176 297.66,17.176L298.13,17.176C299.286,17.284 300.153,17.609 300.768,18.115C301.382,18.621 301.779,19.127 302.032,19.633C302.249,20.175 302.358,20.5 302.394,20.644L302.394,44.853L299.575,44.853L299.575,45.142L302.394,45.142L302.394,45.721L302.972,45.721L302.972,48.467L303.261,48.467L303.261,45.721L311.174,45.721L311.174,48.467L311.463,48.467L311.463,45.721L312.005,45.721L312.005,45.142L314.751,45.142L314.751,44.853L312.005,44.853ZM310.054,18.043L303.839,27.04L303.839,23.86L309.295,15.983C309.584,16.634 309.837,17.32 310.054,18.043ZM294.228,9.19C294.661,9.082 295.239,9.01 295.962,8.901L281.653,29.533L281.653,26.353L282.015,25.884L293.397,9.443C293.65,9.335 293.939,9.263 294.228,9.19ZM292.927,9.588L281.69,25.811L281.653,25.848L281.653,22.668L289.783,10.961C290.723,10.455 291.771,9.985 292.927,9.588ZM267.851,8.179L269.874,8.179C269.079,8.468 268.393,8.757 267.851,9.046L267.851,8.179ZM259.649,8.757L262.864,8.757L262.431,9.371L259.649,13.418L259.649,8.757ZM259.649,13.924L263.226,8.757L265.43,8.757L259.649,17.103L259.649,13.924ZM259.649,17.609L265.755,8.757L266.405,8.757L266.405,11.033L262.828,16.2L259.649,20.789L259.649,17.609ZM259.649,21.295L266.405,11.539L266.405,11.611L267.525,10.889C267.995,10.563 268.79,10.166 269.874,9.732L259.649,24.475L259.649,21.295ZM259.649,24.98L270.344,9.552C271.103,9.263 272.006,9.046 272.982,8.901L259.649,28.16L259.649,24.98ZM266.405,44.203L266.369,44.275L264.165,44.275L264.201,44.239L266.405,41.023L266.405,44.203ZM266.405,40.517L263.804,44.275L261.6,44.275L266.405,37.338L266.405,40.517ZM266.405,36.832L261.238,44.275L259.649,44.275L259.649,43.408L262.828,38.819L266.405,33.652L266.405,36.832ZM266.405,33.146L262.828,38.313L259.649,42.902L259.649,39.723L262.828,35.134L266.405,29.967L266.405,33.146ZM266.405,29.461L262.828,34.628L259.649,39.217L259.649,36.037L262.828,31.448L266.405,26.281L266.405,29.461ZM266.405,25.775L262.828,30.942L259.649,35.531L259.649,32.351L263.117,27.365L266.405,22.596L266.405,25.775ZM269.007,18.332C268.248,18.982 267.67,19.56 267.236,20.066C266.803,20.608 266.55,20.897 266.514,21.006L266.405,21.186L266.405,22.09L259.649,31.846L259.649,28.666L262.72,24.222L273.379,8.829C273.849,8.757 274.355,8.721 274.86,8.721C275.113,8.721 275.402,8.757 275.655,8.757L269.007,18.332ZM269.766,17.718L270.741,16.309L275.981,8.757L276.089,8.757C276.739,8.829 277.39,8.901 278.004,9.046L273.162,16.019C271.861,16.417 270.741,16.995 269.766,17.718ZM275.908,15.73L275.366,15.73C274.752,15.73 274.174,15.767 273.596,15.911L278.293,9.118C278.943,9.263 279.558,9.443 280.1,9.66L275.908,15.73ZM278.149,16.2C277.57,15.983 276.956,15.839 276.27,15.73L276.414,15.55L280.389,9.768C281.003,10.021 281.545,10.274 282.051,10.563L278.365,15.875L278.149,16.2ZM278.401,16.309L279.955,14.104L282.304,10.708C282.882,11.033 283.388,11.358 283.821,11.684L279.919,17.32C279.485,16.923 279.016,16.598 278.401,16.309ZM280.136,17.537L283.46,12.731L284.074,11.864C284.761,12.406 285.231,12.804 285.447,13.02L281.22,19.127C280.967,18.585 280.606,18.043 280.136,17.537ZM281.364,19.416L285.664,13.237L285.917,13.526L286.423,13.093C286.459,13.093 286.712,12.876 287.218,12.551C287.688,12.189 288.374,11.756 289.205,11.25L281.653,22.162L281.653,20.5C281.617,20.175 281.509,19.813 281.364,19.416ZM288.555,44.275L287.146,44.275L288.555,42.216L288.555,44.275ZM288.555,41.71L286.784,44.275L284.58,44.275L284.833,43.95L288.555,38.53L288.555,41.71ZM288.555,38.024L284.219,44.275L282.015,44.275L288.555,34.845L288.555,38.024ZM288.555,34.339L281.69,44.275L281.653,44.275L281.653,41.132L284.905,36.434L288.555,31.159L288.555,34.339ZM288.555,30.653L284.905,35.929L281.653,40.59L281.653,37.41L284.905,32.749L288.555,27.474L288.555,30.653ZM288.555,26.968L284.905,32.243L281.653,36.904L281.653,33.725L284.905,29.063L288.555,23.788L288.555,26.968ZM288.699,21.006L288.555,21.186L288.555,23.282L284.905,28.558L281.653,33.219L281.653,30.039L296.359,8.865C296.865,8.793 297.407,8.793 297.985,8.793L298.6,8.793L292.818,17.14C291.554,17.971 290.578,18.766 289.856,19.56C289.133,20.392 288.735,20.861 288.699,21.006ZM293.397,16.778L298.925,8.793C299.575,8.829 300.262,8.937 300.948,9.082L299.322,11.394L296.287,15.803C295.239,15.983 294.264,16.309 293.397,16.778ZM298.238,15.73C297.985,15.694 297.696,15.694 297.443,15.694C297.191,15.694 296.938,15.694 296.685,15.73L301.237,9.154C301.852,9.299 302.43,9.479 303.044,9.732L302.141,11.033L298.853,15.803C298.672,15.767 298.455,15.767 298.238,15.73ZM300.912,16.489C300.406,16.236 299.828,16.019 299.142,15.875L299.864,14.827L303.333,9.841C303.875,10.058 304.417,10.347 304.923,10.708L302.032,14.863L300.912,16.489ZM301.165,16.634L305.176,10.852C305.682,11.214 306.115,11.575 306.585,12.009L302.538,17.826C302.177,17.392 301.707,16.995 301.165,16.634ZM302.719,18.079L306.766,12.225C307.199,12.659 307.597,13.129 307.994,13.671L303.658,19.886C303.514,19.308 303.189,18.693 302.719,18.079ZM303.767,20.247L308.139,13.924C308.536,14.466 308.861,15.044 309.15,15.658L303.839,23.354L303.839,20.536L303.803,20.5C303.803,20.428 303.803,20.319 303.767,20.247ZM310.56,44.275L307.561,44.275L310.56,39.939L310.56,44.275ZM310.56,39.434L307.199,44.275L304.995,44.275L310.56,36.254L310.56,39.434ZM310.56,35.748L304.67,44.275L303.839,44.275L303.839,42.288L306.983,37.699L310.56,32.568L310.56,35.748ZM310.56,32.062L306.983,37.193L303.839,41.782L303.839,38.602L306.983,34.014L310.56,28.883L310.56,32.062ZM310.56,28.377L306.983,33.508L303.839,38.097L303.839,34.917L306.983,30.328L310.56,25.197L310.56,28.377ZM310.56,24.655L306.983,29.822L303.839,34.411L303.839,31.231L306.983,26.642L310.56,21.475L310.56,24.655ZM310.56,20.97L306.983,26.137L303.839,30.725L303.839,27.546L310.162,18.404C310.307,18.982 310.451,19.56 310.56,20.175L310.56,20.97Z" style="fill:rgb(4,0,61);fill-rule:nonzero;"/>
        <path d="M347.993,13.02C344.127,9.263 339.647,7.42 334.588,7.42C331.119,7.42 327.94,8.251 325.085,9.985C322.194,11.72 319.918,14.032 318.22,16.923C316.522,19.813 315.654,23.029 315.654,26.534C315.654,30.075 316.522,33.291 318.22,36.182C319.918,39.072 322.194,41.385 325.085,43.119C327.94,44.853 331.119,45.721 334.588,45.721C339.574,45.721 343.983,43.914 347.776,40.301L352.654,45.323L352.835,45.106L347.993,40.084L348.391,39.686L348.029,39.253C349.113,38.06 350.053,36.724 350.848,35.242L350.595,35.134C349.836,36.579 348.897,37.88 347.813,39.072L341.634,32.749L341.236,33.146L339.502,31.412L352.943,31.412L353.088,30.834C353.377,29.533 353.558,28.088 353.558,26.534C353.558,21.439 351.715,16.923 347.993,13.02ZM348.246,15.477L344.127,21.403C343.802,20.825 343.441,20.319 343.043,19.813L346.982,14.068C347.451,14.502 347.849,14.972 348.246,15.477ZM332.926,22.849L330.252,26.679L327.976,29.967L325.772,29.967L330.722,22.849L332.926,22.849ZM326.856,21.403C328.879,18.621 331.481,17.248 334.66,17.248C337.768,17.248 340.369,18.621 342.429,21.403L326.856,21.403ZM330.613,26.679L333.251,22.849L335.455,22.849L330.541,29.967L328.337,29.967L330.613,26.679ZM333.179,26.679L335.816,22.849L338.021,22.849L335.383,26.679L333.107,29.967L330.902,29.967L333.179,26.679ZM335.708,26.679L338.382,22.849L340.586,22.849L335.636,29.967L333.432,29.967L335.708,26.679ZM338.274,26.679L340.911,22.849L343.115,22.849L338.201,29.967L335.997,29.967L338.274,26.679ZM346.801,13.851L342.826,19.56C342.429,19.091 341.995,18.693 341.525,18.296L342.79,16.453L345.428,12.659C345.898,13.02 346.367,13.454 346.801,13.851ZM345.211,12.478L343.766,14.538L341.309,18.115C340.839,17.718 340.333,17.392 339.791,17.103L343.693,11.431C344.235,11.756 344.705,12.117 345.211,12.478ZM343.477,11.286L339.538,16.959C338.996,16.706 338.418,16.453 337.804,16.272L341.851,10.455C342.393,10.708 342.935,10.997 343.477,11.286ZM341.598,10.31L337.515,16.2C336.9,16.019 336.25,15.875 335.564,15.839L339.827,9.66C340.441,9.841 341.02,10.058 341.598,10.31ZM339.538,9.588L336.575,13.888L335.238,15.803L334.66,15.803C334.082,15.803 333.504,15.839 332.962,15.911L337.659,9.118C338.31,9.226 338.924,9.407 339.538,9.588ZM337.334,9.082L334.769,12.804L332.565,15.983C331.517,16.2 330.577,16.525 329.638,16.995L335.275,8.865C335.997,8.901 336.684,8.974 337.334,9.082ZM325.483,11.431L317.642,22.776L317.425,23.065C318.581,18.007 321.255,14.104 325.483,11.431ZM317.1,26.534C317.1,25.595 317.172,24.655 317.316,23.752L326.097,11.069C327.072,10.527 328.156,10.058 329.24,9.696L321.689,20.644L317.1,27.221L317.1,26.534ZM317.136,27.69L318.22,26.137L329.71,9.552C330.541,9.299 331.408,9.118 332.275,9.01L317.497,30.364C317.316,29.497 317.208,28.594 317.136,27.69ZM317.606,30.725L321.941,24.475L332.673,8.974C333.287,8.901 333.938,8.865 334.588,8.865L334.949,8.865L329.06,17.32C327.289,18.404 325.916,19.886 324.941,21.801L324.435,22.849L325.266,22.849L318.256,32.93C318.003,32.207 317.786,31.484 317.606,30.725ZM318.4,33.255L325.591,22.849L327.795,22.849L319.304,35.134C318.979,34.519 318.653,33.905 318.4,33.255ZM319.448,35.423L328.156,22.849L330.36,22.849L328.554,25.45L325.446,29.967L324.362,29.967L324.796,30.87L320.532,37.049C320.135,36.543 319.774,36.001 319.448,35.423ZM320.713,37.302L324.941,31.195C325.23,31.809 325.555,32.351 325.952,32.893L322.917,37.266L321.905,38.747C321.472,38.277 321.074,37.808 320.713,37.302ZM322.122,38.964L323.531,36.868L326.133,33.146C326.53,33.616 326.928,34.086 327.398,34.483L323.459,40.192C322.989,39.795 322.52,39.397 322.122,38.964ZM323.676,40.373L326.277,36.651L327.614,34.7C328.084,35.098 328.554,35.423 329.096,35.748L325.121,41.457C324.615,41.132 324.146,40.77 323.676,40.373ZM325.374,41.601L329.349,35.892C329.855,36.182 330.433,36.434 331.011,36.651L326.964,42.505C326.422,42.216 325.88,41.927 325.374,41.601ZM327.217,42.613L331.3,36.76C331.914,36.976 332.528,37.121 333.179,37.193L328.951,43.336C328.373,43.119 327.795,42.902 327.217,42.613ZM331.083,43.914C330.469,43.806 329.818,43.625 329.24,43.408L333.504,37.229C333.901,37.266 334.263,37.302 334.66,37.302C335.022,37.302 335.347,37.302 335.708,37.266L331.336,43.517L331.083,43.914ZM331.408,43.986L332.528,42.36L336.069,37.193C337.009,37.085 337.912,36.832 338.779,36.471L333.432,44.239C332.745,44.203 332.059,44.095 331.408,43.986ZM346.367,39.65C345.283,40.662 344.127,41.493 342.862,42.18L345.319,38.602L346.367,39.65ZM345.139,38.386L342.284,42.469C341.345,42.938 340.333,43.336 339.285,43.625L341.309,40.698L343.838,37.085L345.139,38.386ZM343.621,36.868L338.852,43.733C338.057,43.95 337.226,44.095 336.358,44.167L336.9,43.408L342.357,35.531L343.621,36.868ZM341.598,34.772L342.14,35.314L338.382,40.77L335.997,44.203C335.527,44.239 335.058,44.275 334.588,44.275C334.299,44.275 334.046,44.275 333.757,44.239L336.358,40.517L339.285,36.254C340.116,35.856 340.875,35.387 341.598,34.772ZM341.02,33.363C339.141,35.025 337.045,35.856 334.66,35.856C333.034,35.856 331.517,35.459 330.108,34.664C328.698,33.869 327.578,32.785 326.711,31.412L339.105,31.412L341.02,33.363ZM338.563,29.967L343.477,22.849L344.85,22.849L344.308,21.801L344.272,21.692L348.427,15.694C348.824,16.2 349.186,16.742 349.511,17.284L343.224,26.39L340.767,29.967L338.563,29.967ZM341.092,29.967L349.691,17.573C350.017,18.151 350.342,18.766 350.595,19.416L348.21,22.885L343.296,29.967L341.092,29.967ZM343.657,29.967L350.739,19.705C351.028,20.392 351.281,21.114 351.462,21.837L346.837,28.558L345.861,29.967L343.657,29.967ZM346.223,29.967L351.57,22.198C351.787,23.029 351.932,23.896 352.004,24.764L348.427,29.967L346.223,29.967ZM351.787,29.967L351.317,29.967L351.932,29.063C351.896,29.352 351.859,29.678 351.787,29.967ZM352.004,28.449L350.956,29.967L348.752,29.967L349.33,29.136L352.04,25.197C352.076,25.631 352.112,26.1 352.112,26.534C352.112,27.221 352.076,27.835 352.004,28.449Z" style="fill:rgb(4,0,61);fill-rule:nonzero;"/>
        <path d="M397.351,7.89L397.495,7.275L396.845,7.275L397.64,4.421L397.351,4.349L396.556,7.275L388.173,7.275L388.932,4.565L388.968,4.421L388.679,4.349L387.884,7.275L387.342,7.275L387.161,7.817L384.271,7.817L384.271,8.106L387.089,8.106L383.042,22.596L379.031,8.106L381.741,8.106L381.741,7.817L378.959,7.817L378.815,7.275L378.164,7.275L377.405,4.493L377.369,4.349L377.08,4.421L377.875,7.275L372.202,7.275L372.997,4.421L372.708,4.349L371.913,7.275L371.335,7.275L371.191,7.817L368.3,7.817L368.3,8.106L371.082,8.106L367.071,22.74L362.88,8.106L365.662,8.106L365.662,7.817L362.808,7.817L362.627,7.275L362.013,7.275L361.146,4.349L360.893,4.421L361.688,7.275L353.413,7.275L352.618,4.493L352.582,4.349L352.329,4.421L353.124,7.275L352.582,7.275L352.763,7.89L349.764,7.89L349.764,8.179L352.835,8.179L363.169,44.853L360.315,44.853L360.315,45.142L363.241,45.142L363.422,45.721L363.928,45.721L364.723,48.503L365.012,48.431L364.253,45.721L369.854,45.721L369.131,48.286L369.095,48.431L369.384,48.503L370.143,45.721L370.793,45.721L370.938,45.142L373.756,45.142L373.756,44.853L371.01,44.853L375.093,30.256L379.14,44.853L376.285,44.853L376.285,45.142L379.212,45.142L379.357,45.721L379.935,45.721L380.657,48.358L380.693,48.503L380.983,48.431L380.224,45.721L385.824,45.721L385.066,48.431L385.355,48.503L386.113,45.721L386.764,45.721L386.944,45.142L389.727,45.142L389.727,44.853L387.017,44.853L397.278,8.179L400.061,8.179L400.061,7.89L397.351,7.89ZM388.426,8.721L390.305,8.721L387.161,13.237L388.426,8.721ZM386.908,14.104L390.666,8.721L392.87,8.721L386.041,18.549L385.427,19.416L386.908,14.104ZM385.21,20.283L387.45,17.031L393.195,8.721L395.4,8.721L392.473,12.948L383.729,25.595L385.21,20.283ZM372.202,9.552L372.78,8.721L374.984,8.721L370.757,14.827L372.202,9.552ZM370.54,15.658L375.346,8.721L377.55,8.721L377.189,9.19L369.095,20.934L370.54,15.658ZM368.842,21.765L377.767,8.901L378.381,11.142L367.397,27.04L368.842,21.765ZM354.497,8.793L354.497,8.721L354.569,8.721L354.497,8.793ZM354.606,9.154L354.895,8.721L357.099,8.721L355.653,10.816L355.256,11.394L354.606,9.154ZM355.328,11.756L357.46,8.721L359.664,8.721L355.979,14.032L355.328,11.756ZM356.087,14.393L360.025,8.721L361.543,8.721L361.76,9.407L356.737,16.634L356.087,14.393ZM356.81,16.995L359.014,13.851L361.832,9.768L362.483,12.009L357.46,19.271L356.81,16.995ZM357.568,19.633L360.965,14.719L362.591,12.37L363.241,14.61L358.183,21.873L357.568,19.633ZM358.291,22.234L360.495,19.091L363.35,14.972L364,17.212L358.941,24.511L358.291,22.234ZM359.05,24.872L361.218,21.692L364.072,17.573L364.723,19.813L359.664,27.148L359.05,24.872ZM359.773,27.51L364.831,20.175L365.482,22.415L360.423,29.75L359.773,27.51ZM360.495,30.111L362.699,26.932L365.59,22.776L366.24,25.053L361.146,32.388L360.495,30.111ZM361.254,32.749L363.458,29.569L366.349,25.378L366.963,27.654L361.904,34.989L361.254,32.749ZM361.977,35.35L367.071,28.016L367.108,28.088L367.18,27.871L378.489,11.539L379.104,13.779L362.627,37.627L361.977,35.35ZM363.35,40.228L362.735,37.988L379.212,14.141L379.862,16.417L363.35,40.228ZM369.673,44.275L368.589,44.275L370.432,41.601L369.673,44.275ZM370.649,40.77L368.228,44.275L366.024,44.275L372.13,35.459L370.649,40.77ZM372.383,34.592L365.662,44.275L364.506,44.275L364.217,43.227L373.864,29.28L372.383,34.592ZM375.093,24.836L374.081,28.449L364.108,42.866L363.458,40.59L379.935,16.778L380.585,19.055L375.526,26.353L375.093,24.836ZM375.635,26.751L378.2,22.993L380.693,19.416L381.308,21.692L376.249,28.991L375.635,26.751ZM376.358,29.352L381.416,22.054L382.03,24.33L376.972,31.629L376.358,29.352ZM377.08,31.99L382.139,24.691L382.753,26.968L377.694,34.267L377.08,31.99ZM385.68,44.275L383.873,44.275L386.872,39.975L385.68,44.275ZM387.125,39.108L383.548,44.275L381.344,44.275L381.705,43.733L388.607,33.797L387.125,39.108ZM388.823,32.93L380.983,44.275L380.477,44.275L379.971,42.541L390.305,27.618L388.823,32.93ZM390.558,26.787L379.899,42.18L379.248,39.903L387.342,28.268L392.039,21.439L390.558,26.787ZM392.292,20.608L379.176,39.542L378.525,37.266L393.774,15.297L392.292,20.608ZM393.99,14.43L378.417,36.904L377.803,34.628L382.861,27.329L383.042,27.979L383.476,26.462L395.472,9.118L393.99,14.43Z" style="fill:rgb(4,0,61);fill-rule:nonzero;"/>
        <path d="M416.284,7.311C412.816,7.311 409.636,8.179 406.781,9.913C403.891,11.647 401.614,13.96 399.916,16.85C398.218,19.777 397.351,22.993 397.351,26.498C397.351,30.039 398.218,33.255 399.916,36.182C401.614,39.072 403.891,41.385 406.781,43.119C409.636,44.853 412.816,45.721 416.284,45.721C419.753,45.721 422.933,44.853 425.787,43.119C428.678,41.385 430.954,39.072 432.652,36.182C434.351,33.255 435.218,30.039 435.218,26.498C435.218,22.993 434.351,19.777 432.652,16.85C430.954,13.96 428.678,11.647 425.787,9.913C422.933,8.179 419.753,7.311 416.284,7.311ZM432.544,20.03L430.99,22.307L426.727,28.449C426.871,27.799 426.907,27.148 426.907,26.462C426.907,25.992 426.907,25.559 426.835,25.125L431.677,18.115C432.002,18.729 432.291,19.38 432.544,20.03ZM431.532,17.826L426.763,24.691C426.654,23.896 426.438,23.138 426.149,22.415L430.484,16.164C430.846,16.706 431.207,17.248 431.532,17.826ZM430.304,15.911L426.004,22.126C425.751,21.475 425.426,20.897 425.028,20.355L429.111,14.466C429.545,14.935 429.942,15.405 430.304,15.911ZM425.462,26.462C425.462,29.027 424.595,31.195 422.788,33.038C420.982,34.845 418.814,35.748 416.284,35.748C413.755,35.748 411.587,34.845 409.78,33.038C407.974,31.195 407.07,29.027 407.07,26.462C407.07,23.896 407.974,21.692 409.78,19.886C411.587,18.043 413.755,17.14 416.284,17.14C418.814,17.14 420.982,18.043 422.788,19.886C424.595,21.692 425.462,23.896 425.462,26.462ZM428.895,14.249L426.654,17.537L424.848,20.102C424.486,19.597 424.089,19.127 423.619,18.693L427.594,12.984C428.064,13.382 428.497,13.815 428.895,14.249ZM427.377,12.804L423.439,18.476C422.969,18.079 422.499,17.718 421.993,17.392L425.932,11.684C426.401,12.045 426.907,12.406 427.377,12.804ZM425.679,11.539L422.716,15.803L421.74,17.212C421.234,16.923 420.692,16.634 420.114,16.417L420.187,16.309L424.089,10.636C424.631,10.925 425.173,11.214 425.679,11.539ZM423.836,10.491L419.825,16.309C419.211,16.092 418.597,15.947 417.946,15.839L419.753,13.201L422.138,9.768C422.716,9.985 423.294,10.238 423.836,10.491ZM421.849,9.696L421.126,10.744L417.621,15.767C417.188,15.73 416.754,15.694 416.284,15.694C415.995,15.694 415.742,15.694 415.453,15.73L417.657,12.551L420.006,9.154C420.656,9.299 421.271,9.479 421.849,9.696ZM419.717,9.082L415.092,15.767C414.152,15.875 413.285,16.092 412.418,16.417L417.693,8.829C418.38,8.865 419.066,8.974 419.717,9.082ZM400.458,18.982L403.927,13.96C405.264,12.623 406.745,11.503 408.407,10.636L403.999,16.995L398.941,24.366C399.157,22.451 399.663,20.681 400.458,18.982ZM398.796,26.498C398.796,25.992 398.832,25.486 398.868,24.944L402.409,19.813L408.949,10.383C409.889,9.949 410.864,9.588 411.912,9.335L398.868,28.124C398.832,27.582 398.796,27.076 398.796,26.498ZM398.904,28.558L405.842,18.585L412.31,9.226C413.141,9.01 413.936,8.901 414.803,8.829L399.374,31.087C399.157,30.256 399.013,29.425 398.904,28.558ZM399.483,31.448L415.164,8.793C415.525,8.757 415.923,8.757 416.284,8.757C416.646,8.757 417.007,8.757 417.368,8.793L411.948,16.634C410.178,17.465 408.733,18.657 407.612,20.247C406.492,21.837 405.842,23.643 405.661,25.667L404.433,27.474L400.241,33.544C399.952,32.857 399.699,32.171 399.483,31.448ZM400.35,33.869L401.145,32.713L405.661,26.245L405.661,26.317C405.625,26.353 405.625,26.39 405.625,26.462C405.625,27.329 405.733,28.16 405.95,28.991L401.289,35.676C400.964,35.098 400.639,34.483 400.35,33.869ZM401.47,35.929L404.794,31.123L406.023,29.352C406.239,30.075 406.492,30.725 406.817,31.376L405.697,33.002L402.59,37.518C402.192,37.013 401.795,36.507 401.47,35.929ZM402.771,37.771L406.998,31.665C407.287,32.243 407.649,32.785 408.082,33.291L405.228,37.374L403.999,39.144C403.566,38.711 403.168,38.241 402.771,37.771ZM404.216,39.361L408.263,33.508C408.66,33.977 409.094,34.411 409.564,34.809L405.589,40.554C405.119,40.192 404.65,39.795 404.216,39.361ZM405.806,40.734L406.781,39.361L409.816,34.989C410.286,35.35 410.792,35.676 411.334,35.965L407.323,41.746C406.781,41.421 406.312,41.096 405.806,40.734ZM407.576,41.891L411.587,36.109C412.129,36.362 412.707,36.615 413.321,36.76L409.636,42.071L409.166,42.758C408.624,42.505 408.082,42.216 407.576,41.891ZM409.455,42.866L413.61,36.868C414.261,37.013 414.911,37.121 415.598,37.193L411.19,43.517C410.611,43.336 410.033,43.119 409.455,42.866ZM411.479,43.589L415.923,37.193L416.284,37.193C416.971,37.193 417.621,37.157 418.235,37.013L413.394,44.022C412.743,43.914 412.129,43.769 411.479,43.589ZM413.719,44.095L418.669,36.94C419.753,36.687 420.765,36.254 421.74,35.676L415.778,44.275C415.092,44.239 414.405,44.203 413.719,44.095ZM416.284,44.275L416.14,44.275L422.355,35.278C424.45,33.761 425.859,31.737 426.582,29.208L427.702,27.546L432.689,20.355C432.941,21.078 433.158,21.837 433.339,22.596L418.416,44.131C417.73,44.239 417.007,44.275 416.284,44.275ZM418.814,44.095L433.411,22.993C433.592,23.86 433.7,24.764 433.736,25.703L423.439,40.59L421.415,43.48C420.584,43.769 419.717,43.95 418.814,44.095ZM425.751,41.421L429.292,36.326L433.303,30.509C432.147,35.206 429.653,38.855 425.751,41.421ZM430.448,34.122L425.137,41.818C424.125,42.433 423.041,42.938 421.885,43.336L429.473,32.388L433.773,26.173L433.773,26.498C433.773,27.618 433.664,28.738 433.483,29.786L430.448,34.122ZM419.283,26.39L416.393,26.39L416.393,23.391L416.104,23.391L416.104,26.39L413.177,26.39L413.177,26.679L416.104,26.679L416.104,29.714L416.393,29.714L416.393,26.679L419.283,26.679L419.283,26.39Z" style="fill:rgb(4,0,61);fill-rule:nonzero;"/>
        <path d="M464.955,16.092L462.245,16.128L462.245,8.179L464.955,8.179L464.955,7.89L462.245,7.89L462.245,7.131L461.667,7.131L461.667,4.168L461.378,4.168L461.378,7.131C459.897,7.131 458.379,7.131 456.898,7.167C455.38,7.203 454.296,7.239 453.682,7.275C452.851,7.348 452.092,7.492 451.405,7.709L451.405,7.637L448.695,7.637L448.695,7.059L448.081,7.059L448.081,4.168L447.792,4.168L447.792,7.059L439.698,7.059L439.698,4.168L439.409,4.168L439.409,7.059L438.831,7.059L438.831,7.89L436.121,7.89L436.121,8.179L438.831,8.179L438.831,44.853L436.121,44.853L436.121,45.142L438.831,45.142L438.831,45.721L439.409,45.721L439.409,48.467L439.698,48.467L439.698,45.721L447.792,45.721L447.792,48.467L448.081,48.467L448.081,45.721L448.695,45.721L448.695,45.142L451.405,45.142L451.405,44.853L448.695,44.853L448.695,24.908C448.695,24.727 448.768,24.366 448.876,23.788C449.021,23.101 449.31,22.307 449.743,21.403C450.177,20.5 450.827,19.633 451.731,18.838C452.598,18.043 453.754,17.465 455.235,17.067L461.378,16.995L461.378,20.175L461.667,20.175L461.667,16.995L462.245,16.995L462.245,16.417L464.991,16.381L464.955,16.092ZM448.695,7.926L450.827,7.926C449.96,8.251 449.237,8.612 448.695,8.974L448.695,7.926ZM440.276,8.937L440.602,8.504L442.806,8.504L440.276,12.117L440.276,8.937ZM440.276,12.623L443.167,8.504L445.371,8.504L444.685,9.443L440.276,15.803L440.276,12.623ZM440.276,16.345L445.696,8.504L447.25,8.504L447.25,9.479L443.745,14.502L440.276,19.524L440.276,16.345ZM440.276,20.03L443.745,15.008L447.25,9.985L447.25,12.045L448.442,10.925C448.479,10.889 448.695,10.708 449.165,10.383L440.276,23.21L440.276,20.03ZM440.276,23.716L449.779,9.985C450.538,9.516 451.55,9.154 452.778,8.865L441.216,25.559L440.276,26.895L440.276,23.716ZM440.276,27.401L442.589,24.077L453.176,8.793C453.357,8.757 453.573,8.721 453.79,8.721C454.151,8.684 454.693,8.684 455.488,8.648L440.674,30.003L440.276,30.581L440.276,27.401ZM447.25,44.275L446.491,44.275L447.25,43.155L447.25,44.275ZM447.25,42.649L447.033,42.975L446.13,44.275L443.926,44.275L447.25,39.47L447.25,42.649ZM447.25,38.964L443.565,44.275L441.36,44.275L447.25,35.784L447.25,38.964ZM447.25,35.278L441.035,44.275L440.276,44.275L440.276,42.143L443.745,37.121L447.25,32.099L447.25,35.278ZM447.25,31.593L443.745,36.615L440.276,41.638L440.276,38.458L443.745,33.435L447.25,28.413L447.25,31.593ZM447.25,24.691L447.25,27.907L443.745,32.93L440.276,37.952L440.276,34.772L447.25,24.691ZM448.37,20.897C447.792,22.198 447.431,23.246 447.358,24.077L440.276,34.267L440.276,31.087L440.999,30.075L455.814,8.648C456.5,8.612 457.259,8.612 458.054,8.612L454.838,13.237L452.598,16.489C450.719,17.465 449.31,18.91 448.37,20.897ZM455.055,15.622L454.983,15.658C454.332,15.803 453.682,15.983 453.104,16.272L458.415,8.576L460.619,8.576L458.162,12.117L455.741,15.622L455.055,15.622ZM460.8,15.55L458.668,15.586L460.8,12.515L460.8,15.55ZM460.8,12.009L460.077,13.057L458.343,15.586L456.103,15.622L460.8,8.829L460.8,12.009Z" style="fill:rgb(4,0,61);fill-rule:nonzero;"/>
        <path d="M507.917,44.853L504.232,44.853L486.816,24.511L502.822,8.179L506.905,8.179L506.905,7.89L503.111,7.89L503.69,7.311L502.858,7.311L505.749,4.349L505.532,4.168L502.461,7.311L491.079,7.311L493.825,4.457L493.934,4.349L493.717,4.168L490.682,7.311L489.778,7.311L489.236,7.89L485.515,7.89L485.515,8.179L488.947,8.179L476.987,20.428L476.987,-6.564L479.733,-6.564L479.733,-6.853L476.987,-6.853L476.987,-7.467L476.409,-7.467L476.409,-10.213L476.12,-10.213L476.12,-7.467L468.026,-7.467L468.026,-10.213L467.737,-10.213L467.737,-7.467L467.159,-7.467L467.159,-6.853L464.449,-6.853L464.449,-6.564L467.159,-6.564L467.159,44.853L464.449,44.853L464.449,45.142L467.159,45.142L467.159,45.721L467.737,45.721L467.737,48.503L468.026,48.503L468.026,45.721L476.12,45.721L476.12,48.503L476.409,48.503L476.409,45.721L476.987,45.721L476.987,45.179L479.733,45.179L479.733,44.89L476.987,44.89L476.987,34.519L479.878,31.629L491.224,44.89L487.683,44.89L487.683,45.179L491.477,45.179L491.946,45.721L492.705,45.721L495.054,48.467L495.126,48.575L495.343,48.394L493.066,45.721L503.798,45.721L506.219,48.575L506.436,48.394L504.159,45.721L504.99,45.721L504.484,45.142L507.917,45.142L507.917,44.853ZM500.221,8.757L493.645,15.477L498.306,8.757L500.221,8.757ZM497.944,8.757L494.909,13.129L492.452,16.67L484.973,24.33L486.31,22.379L495.74,8.757L497.944,8.757ZM468.605,-6.022L469.869,-6.022L468.605,-4.215L468.605,-6.022ZM468.605,-3.709L470.231,-6.022L472.435,-6.022L468.605,-0.529L468.605,-3.709ZM468.605,-0.024L472.796,-6.022L475,-6.022L468.605,3.156L468.605,-0.024ZM468.605,3.698L475.325,-6.022L475.542,-6.022L475.542,-3.167L471.893,2.144L468.605,6.878L468.605,3.698ZM468.605,7.384L471.893,2.65L475.542,-2.661L475.542,0.518L471.893,5.83L468.605,10.563L468.605,7.384ZM468.605,11.069L471.893,6.336L475.542,1.024L475.542,4.204L471.893,9.516L468.605,14.249L468.605,11.069ZM468.605,14.755L471.893,10.021L475.542,4.71L475.542,7.89L471.893,13.201L468.605,17.934L468.605,14.755ZM468.605,18.44L471.893,13.707L475.542,8.395L475.542,11.575L471.893,16.887L468.605,21.62L468.605,18.44ZM468.605,22.126L471.893,17.392L475.542,12.081L475.542,15.261L471.893,20.572L468.605,25.306L468.605,22.126ZM468.605,25.811L471.893,21.078L475.542,15.767L475.542,18.946L471.893,24.258L468.605,28.991L468.605,25.811ZM468.605,29.497L471.893,24.764L475.542,19.488L475.542,22.668L471.893,27.943L468.605,32.677L468.605,29.497ZM468.605,33.183L471.893,28.449L475.542,23.174L475.542,23.969L481.179,18.187L468.605,36.362L468.605,33.183ZM468.605,36.868L482.407,16.959L489.995,9.154L470.736,36.976L468.605,40.048L468.605,36.868ZM475.542,44.275L473.699,44.275L475.542,41.601L475.542,44.275ZM475.542,41.096L473.338,44.275L471.17,44.275L471.278,44.095L475.542,37.916L475.542,41.096ZM475.542,37.41L470.809,44.275L468.605,44.275L468.605,44.239L469.4,43.119L475.542,34.23L475.542,37.41ZM468.605,43.733L468.605,40.554L490.646,8.757L492.85,8.757L479.481,28.016L468.605,43.733ZM479.95,29.497L476.192,33.291L493.211,8.757L495.379,8.757L489.706,16.995L480.565,30.184L479.95,29.497ZM480.745,30.4L484.864,24.438L486.093,25.884L481.974,31.846L480.745,30.4ZM482.154,32.062L486.274,26.1L487.502,27.51L483.383,33.472L482.154,32.062ZM483.564,33.725L487.683,27.763L488.911,29.172L484.792,35.134L483.564,33.725ZM484.973,35.35L489.092,29.389L490.32,30.834L486.201,36.796L484.973,35.35ZM486.382,37.013L490.537,31.051L491.73,32.46L487.61,38.422L486.382,37.013ZM487.791,38.675L491.946,32.713L493.139,34.122L489.02,40.084L487.791,38.675ZM489.2,40.301L493.356,34.339L494.548,35.748L490.429,41.746L489.2,40.301ZM491.838,43.372L490.609,41.963L494.765,36.001L495.957,37.41L491.838,43.372ZM492.597,44.275L492.055,43.589L496.174,37.627L497.402,39.072L493.789,44.275L492.597,44.275ZM494.114,44.275L496.535,40.77L497.583,39.289L498.812,40.698L498.017,41.818L496.318,44.275L494.114,44.275ZM496.68,44.275L498.306,41.963L498.992,40.951L500.221,42.36L498.884,44.275L496.68,44.275ZM501.522,44.167L501.449,44.275L499.245,44.275L500.401,42.577L501.63,44.022L501.522,44.167ZM501.775,44.275L501.811,44.239L501.847,44.275L501.775,44.275Z" style="fill:rgb(4,0,61);fill-rule:nonzero;"/>
    </g>
    <g transform="matrix(1,0,0,1,77.1228,-0.957668)">
        <path d="M109.325,101.606L109.325,85.106L112.986,85.106L112.986,90.606C113.06,89.987 113.251,89.526 113.557,89.222C113.864,88.918 114.286,88.766 114.825,88.766L116.664,88.766C117.666,88.766 118.527,89.129 119.246,89.854C119.965,90.578 120.325,91.442 120.325,92.445L120.325,97.945C120.325,98.936 119.965,99.794 119.246,100.518C118.527,101.243 117.666,101.606 116.664,101.606L109.325,101.606ZM112.986,99.766L114.825,99.766C115.334,99.766 115.768,99.586 116.127,99.225C116.485,98.864 116.664,98.437 116.664,97.945L116.664,92.445C116.664,91.94 116.482,91.508 116.118,91.147C115.754,90.786 115.323,90.606 114.825,90.606C114.32,90.606 113.888,90.786 113.527,91.147C113.166,91.508 112.986,91.94 112.986,92.445L112.986,99.766Z" style="fill:rgb(4,0,61);fill-rule:nonzero;"/>
        <path d="M134.986,88.766L134.986,101.606L131.325,101.606L131.325,99.766C131.181,100.993 130.568,101.606 129.486,101.606L127.646,101.606C126.644,101.606 125.783,101.246 125.064,100.527C124.345,99.808 123.986,98.947 123.986,97.945L123.986,88.766L127.646,88.766L127.646,97.945C127.646,98.437 127.826,98.864 128.184,99.225C128.542,99.586 128.976,99.766 129.486,99.766C129.995,99.766 130.429,99.586 130.787,99.225C131.146,98.864 131.325,98.437 131.325,97.945L131.325,88.766L134.986,88.766Z" style="fill:rgb(4,0,61);fill-rule:nonzero;"/>
        <path d="M138.646,86.945L138.646,85.106L142.307,85.106L142.307,86.945L138.646,86.945ZM138.646,101.606L138.646,88.766L142.307,88.766L142.307,101.606L138.646,101.606Z" style="fill:rgb(4,0,61);fill-rule:nonzero;"/>
        <rect x="145.986" y="85.106" width="3.661" height="16.5" style="fill:rgb(4,0,61);fill-rule:nonzero;"/>
        <path d="M164.325,101.606L160.664,101.606L160.664,99.766C160.52,100.993 159.907,101.606 158.825,101.606L156.986,101.606C155.983,101.606 155.122,101.246 154.403,100.527C153.684,99.808 153.325,98.947 153.325,97.945L153.325,92.445C153.325,91.431 153.686,90.564 154.407,89.845C155.129,89.126 155.989,88.766 156.986,88.766L160.664,88.766L160.664,85.106L164.325,85.106L164.325,101.606ZM160.664,90.606L158.825,90.606C158.32,90.606 157.888,90.786 157.527,91.147C157.166,91.508 156.986,91.94 156.986,92.445L156.986,97.945C156.986,98.437 157.165,98.864 157.523,99.225C157.881,99.586 158.315,99.766 158.825,99.766C159.334,99.766 159.768,99.586 160.127,99.225C160.485,98.864 160.664,98.437 160.664,97.945L160.664,90.606Z" style="fill:rgb(4,0,61);fill-rule:nonzero;"/>
        <path d="M182.518,92.445L180.696,92.445C180.535,91.219 179.957,90.606 178.96,90.606C178.312,90.606 177.825,90.733 177.499,90.988C177.172,91.243 177.009,91.622 177.009,92.127C177.009,92.654 177.9,93.393 179.682,94.344C181.131,95.123 181.966,95.769 182.187,96.282C182.407,96.794 182.518,97.34 182.518,97.919C182.518,98.939 182.158,99.808 181.439,100.527C180.72,101.246 179.859,101.606 178.857,101.606L177.018,101.606C174.577,101.606 173.357,100.385 173.357,97.945L175.196,97.945C175.339,99.165 175.912,99.775 176.914,99.775C177.562,99.775 178.049,99.646 178.375,99.388C178.702,99.131 178.865,98.75 178.865,98.245C178.865,97.73 177.977,96.991 176.201,96.028C174.746,95.255 173.908,94.61 173.687,94.095C173.467,93.579 173.357,93.035 173.357,92.462C173.357,91.436 173.718,90.564 174.439,89.845C175.161,89.126 176.021,88.766 177.018,88.766L178.857,88.766C181.148,88.766 182.369,89.993 182.518,92.445Z" style="fill:rgb(4,0,61);fill-rule:nonzero;"/>
        <path d="M189.857,88.766L193.535,88.766C194.537,88.766 195.398,89.129 196.117,89.854C196.836,90.578 197.196,91.442 197.196,92.445L197.196,97.945C197.196,98.936 196.836,99.794 196.117,100.518C195.398,101.243 194.537,101.606 193.535,101.606L189.857,101.606C188.854,101.606 187.993,101.246 187.274,100.527C186.555,99.808 186.196,98.947 186.196,97.945L186.196,92.445C186.196,91.431 186.557,90.564 187.279,89.845C188,89.126 188.86,88.766 189.857,88.766ZM189.857,92.445L189.857,97.945C189.857,98.437 190.036,98.864 190.394,99.225C190.752,99.586 191.186,99.766 191.696,99.766C192.206,99.766 192.64,99.586 192.998,99.225C193.356,98.864 193.535,98.437 193.535,97.945L193.535,92.445C193.535,91.94 193.353,91.508 192.989,91.147C192.625,90.786 192.194,90.606 191.696,90.606C191.192,90.606 190.759,90.786 190.398,91.147C190.037,91.508 189.857,91.94 189.857,92.445Z" style="fill:rgb(4,0,61);fill-rule:nonzero;"/>
        <rect x="200.857" y="85.106" width="3.661" height="16.5" style="fill:rgb(4,0,61);fill-rule:nonzero;"/>
        <path d="M208.196,86.945L208.196,85.106L211.857,85.106L211.857,86.945L208.196,86.945ZM208.196,101.606L208.196,88.766L211.857,88.766L211.857,101.606L208.196,101.606Z" style="fill:rgb(4,0,61);fill-rule:nonzero;"/>
        <path d="M226.535,101.606L222.874,101.606L222.874,99.766C222.731,100.993 222.118,101.606 221.035,101.606L219.196,101.606C218.193,101.606 217.332,101.246 216.613,100.527C215.894,99.808 215.535,98.947 215.535,97.945L215.535,92.445C215.535,91.431 215.896,90.564 216.618,89.845C217.339,89.126 218.199,88.766 219.196,88.766L222.874,88.766L222.874,85.106L226.535,85.106L226.535,101.606ZM222.874,90.606L221.035,90.606C220.531,90.606 220.098,90.786 219.737,91.147C219.376,91.508 219.196,91.94 219.196,92.445L219.196,97.945C219.196,98.437 219.375,98.864 219.733,99.225C220.091,99.586 220.525,99.766 221.035,99.766C221.545,99.766 221.979,99.586 222.337,99.225C222.695,98.864 222.874,98.437 222.874,97.945L222.874,90.606Z" style="fill:rgb(4,0,61);fill-rule:nonzero;"/>
        <path d="M242.906,94.266L242.906,92.445C242.906,91.94 242.724,91.508 242.36,91.147C241.996,90.786 241.565,90.606 241.067,90.606L239.228,90.606C238.145,90.606 237.538,91.219 237.406,92.445L235.567,92.445C235.848,89.993 237.068,88.766 239.228,88.766L242.906,88.766C243.908,88.766 244.769,89.129 245.488,89.854C246.207,90.578 246.567,91.442 246.567,92.445L246.567,101.606L242.906,101.606L242.906,99.766C242.763,100.993 242.15,101.606 241.067,101.606L239.228,101.606C238.225,101.606 237.364,101.246 236.645,100.527C235.926,99.808 235.567,98.947 235.567,97.945L235.567,97.927C235.567,96.925 235.928,96.064 236.65,95.345C237.371,94.626 238.231,94.266 239.228,94.266L242.906,94.266ZM242.906,96.106L241.067,96.106C240.563,96.106 240.13,96.285 239.769,96.643C239.408,97.001 239.228,97.429 239.228,97.927L239.228,97.945C239.228,98.437 239.407,98.864 239.765,99.225C240.123,99.586 240.557,99.766 241.067,99.766C241.577,99.766 242.011,99.586 242.369,99.225C242.727,98.864 242.906,98.437 242.906,97.945L242.906,96.106Z" style="fill:rgb(4,0,61);fill-rule:nonzero;"/>
        <path d="M250.228,88.766L253.889,88.766L253.889,90.606C253.889,89.987 254.043,89.526 254.353,89.222C254.662,88.918 255.12,88.766 255.728,88.766L257.567,88.766C258.569,88.766 259.43,89.129 260.149,89.854C260.868,90.578 261.228,91.442 261.228,92.445L261.228,97.945C261.228,98.947 260.868,99.808 260.149,100.527C259.43,101.246 258.569,101.606 257.567,101.606L253.889,101.606L253.889,105.266L250.228,105.266L250.228,88.766ZM253.889,99.766L255.728,99.766C256.226,99.766 256.657,99.587 257.021,99.229C257.385,98.871 257.567,98.443 257.567,97.945L257.567,92.445C257.567,91.94 257.385,91.509 257.021,91.151C256.657,90.793 256.226,90.614 255.728,90.614C255.224,90.608 254.791,90.786 254.43,91.147C254.069,91.508 253.889,91.94 253.889,92.445L253.889,99.766Z" style="fill:rgb(4,0,61);fill-rule:nonzero;"/>
        <path d="M264.889,88.766L268.55,88.766L268.55,90.606C268.55,89.987 268.704,89.526 269.014,89.222C269.323,88.918 269.781,88.766 270.389,88.766L272.228,88.766C273.23,88.766 274.091,89.129 274.81,89.854C275.529,90.578 275.889,91.442 275.889,92.445L275.889,97.945C275.889,98.947 275.529,99.808 274.81,100.527C274.091,101.246 273.23,101.606 272.228,101.606L268.55,101.606L268.55,105.266L264.889,105.266L264.889,88.766ZM268.55,99.766L270.389,99.766C270.887,99.766 271.318,99.587 271.682,99.229C272.046,98.871 272.228,98.443 272.228,97.945L272.228,92.445C272.228,91.94 272.046,91.509 271.682,91.151C271.318,90.793 270.887,90.614 270.389,90.614C269.884,90.608 269.452,90.786 269.091,91.147C268.73,91.508 268.55,91.94 268.55,92.445L268.55,99.766Z" style="fill:rgb(4,0,61);fill-rule:nonzero;"/>
        <rect x="279.55" y="85.106" width="3.661" height="16.5" style="fill:rgb(4,0,61);fill-rule:nonzero;"/>
        <path d="M286.889,86.945L286.889,85.106L290.55,85.106L290.55,86.945L286.889,86.945ZM286.889,101.606L286.889,88.766L290.55,88.766L290.55,101.606L286.889,101.606Z" style="fill:rgb(4,0,61);fill-rule:nonzero;"/>
        <path d="M303.389,92.445L301.567,92.445C301.424,91.219 300.811,90.606 299.728,90.606C299.224,90.606 298.791,90.786 298.43,91.147C298.069,91.508 297.889,91.94 297.889,92.445L297.889,97.945C297.889,98.437 298.068,98.864 298.426,99.225C298.784,99.586 299.218,99.766 299.728,99.766C300.811,99.766 301.424,99.159 301.567,97.945L303.389,97.945C303.24,100.385 302.019,101.606 299.728,101.606L297.889,101.606C296.886,101.606 296.025,101.246 295.306,100.527C294.587,99.808 294.228,98.947 294.228,97.945L294.228,92.445C294.228,91.431 294.589,90.564 295.311,89.845C296.032,89.126 296.892,88.766 297.889,88.766L299.728,88.766C302.031,88.766 303.251,89.993 303.389,92.445Z" style="fill:rgb(4,0,61);fill-rule:nonzero;"/>
        <path d="M314.406,94.266L314.406,92.445C314.406,91.94 314.224,91.508 313.86,91.147C313.496,90.786 313.065,90.606 312.567,90.606L310.728,90.606C309.645,90.606 309.038,91.219 308.906,92.445L307.067,92.445C307.348,89.993 308.568,88.766 310.728,88.766L314.406,88.766C315.408,88.766 316.269,89.129 316.988,89.854C317.707,90.578 318.067,91.442 318.067,92.445L318.067,101.606L314.406,101.606L314.406,99.766C314.263,100.993 313.65,101.606 312.567,101.606L310.728,101.606C309.725,101.606 308.864,101.246 308.145,100.527C307.426,99.808 307.067,98.947 307.067,97.945L307.067,97.927C307.067,96.925 307.428,96.064 308.15,95.345C308.871,94.626 309.731,94.266 310.728,94.266L314.406,94.266ZM314.406,96.106L312.567,96.106C312.063,96.106 311.63,96.285 311.269,96.643C310.908,97.001 310.728,97.429 310.728,97.927L310.728,97.945C310.728,98.437 310.907,98.864 311.265,99.225C311.623,99.586 312.057,99.766 312.567,99.766C313.077,99.766 313.511,99.586 313.869,99.225C314.227,98.864 314.406,98.437 314.406,97.945L314.406,96.106Z" style="fill:rgb(4,0,61);fill-rule:nonzero;"/>
        <path d="M323.567,85.106L327.228,85.106L327.228,88.766L329.067,88.766L329.067,90.606L327.228,90.606L327.228,97.945C327.228,98.535 327.423,98.986 327.812,99.298C328.202,99.61 328.563,99.766 328.895,99.766L329.067,99.766L329.067,101.606L327.228,101.606C326.219,101.606 325.357,101.246 324.641,100.527C323.925,99.808 323.567,98.947 323.567,97.945L323.567,90.606L321.728,90.606L321.728,88.766L323.567,88.766L323.567,85.106Z" style="fill:rgb(4,0,61);fill-rule:nonzero;"/>
        <path d="M332.728,86.945L332.728,85.106L336.389,85.106L336.389,86.945L332.728,86.945ZM332.728,101.606L332.728,88.766L336.389,88.766L336.389,101.606L332.728,101.606Z" style="fill:rgb(4,0,61);fill-rule:nonzero;"/>
        <path d="M343.728,88.766L347.406,88.766C348.408,88.766 349.269,89.129 349.988,89.854C350.707,90.578 351.067,91.442 351.067,92.445L351.067,97.945C351.067,98.936 350.707,99.794 349.988,100.518C349.269,101.243 348.408,101.606 347.406,101.606L343.728,101.606C342.725,101.606 341.864,101.246 341.145,100.527C340.426,99.808 340.067,98.947 340.067,97.945L340.067,92.445C340.067,91.431 340.428,90.564 341.15,89.845C341.871,89.126 342.731,88.766 343.728,88.766ZM343.728,92.445L343.728,97.945C343.728,98.437 343.907,98.864 344.265,99.225C344.623,99.586 345.057,99.766 345.567,99.766C346.077,99.766 346.511,99.586 346.869,99.225C347.227,98.864 347.406,98.437 347.406,97.945L347.406,92.445C347.406,91.94 347.224,91.508 346.86,91.147C346.496,90.786 346.065,90.606 345.567,90.606C345.063,90.606 344.63,90.786 344.269,91.147C343.908,91.508 343.728,91.94 343.728,92.445Z" style="fill:rgb(4,0,61);fill-rule:nonzero;"/>
        <path d="M354.728,101.606L354.728,88.766L358.389,88.766L358.389,90.606C358.463,89.987 358.654,89.526 358.96,89.222C359.267,88.918 359.689,88.766 360.228,88.766L362.067,88.766C363.069,88.766 363.93,89.129 364.649,89.854C365.368,90.578 365.728,91.442 365.728,92.445L365.728,101.606L362.067,101.606L362.067,92.445C362.067,91.94 361.885,91.508 361.521,91.147C361.157,90.786 360.726,90.606 360.228,90.606C359.724,90.606 359.291,90.786 358.93,91.147C358.569,91.508 358.389,91.94 358.389,92.445L358.389,101.606L354.728,101.606Z" style="fill:rgb(4,0,61);fill-rule:nonzero;"/>
        <path d="M378.55,92.445L376.728,92.445C376.567,91.219 375.989,90.606 374.992,90.606C374.344,90.606 373.857,90.733 373.531,90.988C373.204,91.243 373.041,91.622 373.041,92.127C373.041,92.654 373.932,93.393 375.714,94.344C377.163,95.123 377.998,95.769 378.219,96.282C378.439,96.794 378.55,97.34 378.55,97.919C378.55,98.939 378.19,99.808 377.471,100.527C376.752,101.246 375.891,101.606 374.889,101.606L373.05,101.606C370.609,101.606 369.389,100.385 369.389,97.945L371.228,97.945C371.371,99.165 371.944,99.775 372.946,99.775C373.594,99.775 374.081,99.646 374.407,99.388C374.734,99.131 374.897,98.75 374.897,98.245C374.897,97.73 374.009,96.991 372.233,96.028C370.778,95.255 369.94,94.61 369.72,94.095C369.499,93.579 369.389,93.035 369.389,92.462C369.389,91.436 369.75,90.564 370.471,89.845C371.193,89.126 372.053,88.766 373.05,88.766L374.889,88.766C377.18,88.766 378.401,89.993 378.55,92.445Z" style="fill:rgb(4,0,61);fill-rule:nonzero;"/>
    </g>
</svg>
